<?xml version="1.0" encoding="UTF-8"?>
<svg id="Layer_1" data-name="Layer 1" xmlns="http://www.w3.org/2000/svg" viewBox="0 0 824.72 800.61">
  <defs>
    <style>
      .cls-1 {
        fill: #cce3f2;
      }
    </style>
  </defs>
  <rect class="cls-1" width="824.72" height="800.61"/>
  <path d="M580.93,351.91c1.25-.62,2.49-1.25,3.11-1.87,28.62-18.04,47.29-46.04,47.29-77.16s-19.29-59.73-48.54-77.78l-.62-.62c-3.73-2.49-8.09-4.36-12.45-6.84,13.07-8.09,23.64-19.91,30.49-34.22,8.09-17.42,8.71-36.71,1.87-52.27-5.6-13.07-16.18-22.4-29.25-27.38-16.8-5.6-36.09-1.87-52.27,8.71-13.07-8.71-28-13.07-42.93-10.58-14.31,2.49-26.13,10.58-34.22,23.02-9.33,14.31-11.82,32.98-7.46,51.02,3.11,13.07,9.96,25.51,19.29,34.84-46.04,14.93-78.4,50.4-78.4,91.46,0,37.33,26.13,69.69,65.33,86.49-6.84,11.2-9.96,28.62,4.36,42.93,1.87,1.87,4.36,2.49,6.84,2.49s4.98-.62,6.84-2.49c3.73-3.73,3.73-9.33,0-13.07-9.96-9.96-2.49-19.91,0-23.02v-.62c4.36,1.25,8.09,1.87,12.45,3.11-3.73,11.82-.62,24.27,8.71,33.6,1.87,1.87,4.36,2.49,6.84,2.49s4.98-.62,6.84-2.49c3.73-3.73,3.73-9.33,0-13.07-1.87-1.87-8.09-8.09-3.11-18.04,4.36,0,8.09,.62,12.45,.62h3.11c-1.87,9.33,0,20.54,9.96,30.49,1.87,1.87,4.36,2.49,6.84,2.49s4.98-.62,6.84-2.49c3.73-3.73,3.73-9.33,0-13.07-7.46-7.46-4.98-14.31-2.49-19.29,5.6-.62,11.2-1.87,16.8-3.11-3.11,11.82-2.49,24.89,8.09,35.46,1.87,1.87,4.36,2.49,6.84,2.49s4.98-.62,6.84-2.49c3.73-3.73,3.73-9.33,0-13.07-9.96-9.96,0-26.13,3.73-31.11,2.49-1.25,6.22-3.11,9.96-5.6h0Zm-47.29-1.25c4.36-23.64,11.2-80.89-.62-154.93,6.22,1.25,11.82,2.49,17.42,4.36,12.45,65.96,6.22,118.22,.62,145.6-5.6,1.87-11.2,3.73-17.42,4.98h0Zm-13.69-242.66c4.98,6.22,8.71,13.69,10.58,21.78,4.36,17.42-.62,34.22-11.82,44.18-14.31-9.96-18.04-30.49-9.33-50.4,3.11-5.61,6.22-10.58,10.57-15.56Zm93.34,164.89c0,18.04-8.09,34.22-21.78,47.91,3.73-25.51,4.98-57.87-.62-95.82,14.31,13.69,22.4,29.87,22.4,47.91h0Zm-46.67-180.45c8.09,2.49,14.31,8.71,18.04,16.8,4.98,10.58,4.36,24.27-1.87,37.33-7.46,16.8-22.4,29.25-38.58,32.35q-.62,0-1.25,.62c-1.25,0-2.49-.62-3.73-.62,9.96-14.31,13.69-33.6,8.71-52.89-2.49-10.58-7.46-20.54-14.31-28.62,11.21-6.84,23.03-8.09,32.98-4.98h0Zm-89.6,82.76c-11.2-6.84-19.91-18.67-23.64-32.98-3.11-13.07-1.25-26.13,4.98-36.71,4.98-8.09,12.45-13.07,21.78-14.93,8.71-1.87,17.42,0,24.89,4.98-4.98,5.6-9.96,12.44-13.07,19.91-9.33,20.54-8.09,42.31,1.25,58.49-5.6,.62-10.58,.62-16.18,1.87q.62,0,0-.62h0Zm-81.51,97.69c0-41.07,42.31-75.29,95.82-79.64v.62c14.31,81.51,4.36,142.49,1.25,159.29-54.13-4.36-97.07-38.57-97.07-80.27h0Z"/>
  <path d="M434.08,259.82c0-7.46-6.22-14.31-14.31-14.31-7.46,0-14.31,6.22-14.31,14.31,0,7.46,6.22,14.31,14.31,14.31s14.31-6.22,14.31-14.31Z"/>
  <path d="M460.21,245.52c-7.46,0-14.31,6.22-14.31,14.31,0,7.46,6.22,14.31,14.31,14.31s14.31-6.22,14.31-14.31c0-7.47-6.22-14.31-14.31-14.31Z"/>
  <path d="M455.85,278.49c-4.98,0-9.33,4.36-9.33,9.33,0,3.73-3.11,6.84-6.84,6.84s-6.84-3.11-6.84-6.84c0-4.98-4.36-9.33-9.33-9.33s-9.33,4.36-9.33,9.33c0,13.69,11.2,25.51,25.51,25.51s25.51-11.2,25.51-25.51c0-4.98-4.36-9.33-9.34-9.33h0Z"/>
  <path d="M240.25,427.49c-13.77,0-24.97,11.2-24.97,24.96s11.2,24.96,24.97,24.96,24.96-11.2,24.96-24.96-11.2-24.96-24.96-24.96Zm0,43.08c-9.99,0-18.11-8.13-18.11-18.11s8.13-18.11,18.11-18.11,18.11,8.13,18.11,18.11-8.13,18.11-18.11,18.11Z"/>
  <path d="M295.86,426.67c-.76,0-1.54,.07-2.31,.21l-12.67,2.28c-.14,.03-.28,.05-.41,.07,.08-.1,.17-.21,.26-.32l8.31-9.83c2.34-2.77,3.35-6.28,2.77-9.64-.58-3.35-2.72-6.32-5.87-8.13l-24.26-14.01c-1.92-1.11-4.03-1.69-6.13-1.69-4.84,0-9.08,3.1-10.81,7.89l-4.36,12.11c-.05,.14-.1,.27-.15,.39-.05-.12-.1-.25-.15-.39l-4.36-12.11c-1.73-4.79-5.97-7.89-10.81-7.89-2.09,0-4.21,.59-6.13,1.69l-24.26,14.01c-3.14,1.81-5.28,4.78-5.87,8.13-.59,3.35,.42,6.86,2.77,9.64l8.31,9.83c.1,.11,.18,.22,.26,.32-.13-.02-.27-.04-.41-.07l-12.67-2.28c-.77-.14-1.55-.21-2.31-.21-6.57,0-11.52,5.06-11.52,11.77v28.01c0,6.71,4.95,11.77,11.52,11.77,.76,0,1.54-.07,2.31-.21l12.67-2.28c.14-.03,.28-.05,.41-.07-.08,.1-.17,.21-.26,.32l-8.31,9.83c-2.34,2.77-3.35,6.28-2.77,9.63,.59,3.35,2.72,6.32,5.87,8.13l24.26,14.01c1.92,1.11,4.04,1.69,6.13,1.69,3.86,0,7.34-1.97,9.47-5.2,.25,10.19,2.69,18.84,5.21,26.42-4.64-3.34-9.93-5.17-15.05-5.17-2.15,0-4.18,.33-6.06,.98-1.25,.43-2.14,1.54-2.29,2.85-.83,7.24,2.95,15.19,9.88,20.75,4.93,3.96,10.73,6.14,16.33,6.14,1.06,0,2.09-.08,3.1-.24-.42,5.18-2.62,10.3-7.8,15.91-1.28,1.39-1.2,3.56,.2,4.84,.66,.61,1.49,.91,2.32,.91,.92,0,1.84-.37,2.52-1.1,6.21-6.74,9.32-13.41,9.68-20.9,5.18-.13,10.55-2.6,14.78-6.83,5.38-5.38,7.86-12.52,6.47-18.63-.29-1.28-1.3-2.29-2.58-2.58-1.1-.25-2.25-.37-3.42-.37-5.32,0-10.86,2.49-15.21,6.84-1.21,1.21-2.26,2.5-3.17,3.85-.56-1.71-1.15-3.43-1.75-5.17-3.77-10.95-7.96-23.15-5.68-39.16l2.88,8c1.72,4.79,5.97,7.89,10.81,7.89,2.09,0,4.21-.59,6.13-1.69l24.26-14.01c3.14-1.81,5.28-4.78,5.87-8.13,.59-3.35-.42-6.87-2.77-9.64l-8.31-9.83c-.1-.11-.18-.22-.26-.33,.13,.02,.27,.04,.41,.07l12.67,2.28c.77,.14,1.55,.21,2.31,.21,6.57,0,11.52-5.06,11.52-11.77v-28.01c0-6.71-4.96-11.77-11.53-11.77h0Zm-38.55,122.06c2.89-2.89,6.55-4.67,9.89-4.82-.15,3.28-1.9,6.95-4.83,9.88-2.89,2.89-6.55,4.67-9.89,4.82,.15-3.28,1.9-6.94,4.83-9.88Zm-13.33,10.37c-.5,.06-1.02,.09-1.55,.09-3.99,0-8.38-1.69-12.04-4.63-4.24-3.41-6.96-8.02-7.38-12.29,.5-.06,1.02-.09,1.55-.09,3.99,0,8.38,1.69,12.04,4.63,4.24,3.41,6.96,8.02,7.38,12.29Zm56.55-92.65c0,2.9-1.92,4.92-4.67,4.92-.36,0-.72-.03-1.1-.1l-12.67-2.28c-.94-.17-1.83-.26-2.65-.26-4.03,0-5.6,2.07-6.17,3.31-.79,1.69-1.04,4.51,2.22,8.37l8.31,9.83c1.04,1.23,1.49,2.67,1.25,4.03-.24,1.37-1.14,2.56-2.54,3.37l-24.26,14.01c-.89,.51-1.8,.77-2.7,.77-1.97,0-3.6-1.26-4.36-3.36l-4.36-12.11c-1.92-5.33-4.96-6.13-6.6-6.13-.05,0-.09,0-.14,0h0c-1.67,.05-4.59,.95-6.45,6.13l-4.36,12.11c-.76,2.1-2.38,3.36-4.36,3.36-.9,0-1.81-.26-2.7-.77l-24.26-14.01c-1.4-.81-2.3-2.01-2.54-3.37s.2-2.8,1.25-4.03l8.31-9.83c3.26-3.85,3.01-6.68,2.22-8.37-.57-1.24-2.14-3.31-6.18-3.31-.81,0-1.7,.08-2.65,.26l-12.67,2.28c-.37,.07-.74,.1-1.1,.1-2.75,0-4.67-2.02-4.67-4.92v-28.01c0-2.9,1.92-4.92,4.67-4.92,.36,0,.73,.03,1.1,.1l12.67,2.28c.94,.17,1.83,.26,2.65,.26,4.03,0,5.6-2.08,6.18-3.31,.79-1.69,1.03-4.51-2.22-8.37l-8.31-9.83c-1.04-1.23-1.49-2.67-1.25-4.03,.24-1.37,1.14-2.57,2.54-3.37l24.25-14.01c.89-.51,1.8-.77,2.7-.77,1.97,0,3.6,1.25,4.36,3.36l4.36,12.11c1.92,5.33,4.96,6.13,6.6,6.13s4.68-.8,6.6-6.13l4.36-12.11c.76-2.1,2.39-3.36,4.36-3.36,.9,0,1.81,.26,2.7,.77l24.26,14.01c1.4,.81,2.3,2.01,2.54,3.37s-.2,2.8-1.25,4.03l-8.31,9.83c-3.26,3.85-3.01,6.68-2.22,8.37,.57,1.24,2.14,3.31,6.18,3.31,.81,0,1.7-.08,2.64-.26l12.67-2.28c.37-.07,.74-.1,1.1-.1,2.75,0,4.67,2.03,4.67,4.92v28.01Z"/>
</svg>